<svg xmlns="http://www.w3.org/2000/svg" viewBox="0 0 51.89 47.9"><defs><style>.cls-1{fill:#39b54a;}.cls-2{fill:#009245;}</style></defs><title>mine_hlt</title><g id="图层_2" data-name="图层 2"><g id="图层_1-2" data-name="图层 1"><path class="cls-1" d="M35.8,13.21a9.84,9.84,0,0,0-1.92-5.86c.38,2.22-1.31,6-4.54,9.24S22.11,21.38,20,21A9.84,9.84,0,0,0,35.8,13.21Z"/><path class="cls-2" d="M26,26.49A13.27,13.27,0,0,0,27.3,0,1.71,1.71,0,0,0,27,3.41a9.84,9.84,0,1,1-9.43,4.66,1.71,1.71,0,1,0-2.91-1.79A13.28,13.28,0,0,0,26,26.49Z"/><path class="cls-2" d="M20.52,4.71a1.66,1.66,0,0,0,.8-.2,5.77,5.77,0,0,1,.56-.27,1.71,1.71,0,0,0-1.41-3.12l-.76.37A1.72,1.72,0,0,0,19,3.81a1.75,1.75,0,0,0,1.52.9ZM51.77,45.55a28,28,0,0,0-51.65,0,1.7,1.7,0,0,0,1,2.21,1.76,1.76,0,0,0,.63.12A1.72,1.72,0,0,0,3.3,46.82a24.55,24.55,0,0,1,45.29,0,1.71,1.71,0,0,0,3.18-1.26Z"/></g></g></svg>