<svg xmlns="http://www.w3.org/2000/svg" viewBox="0 0 54.59 47.88"><defs><style>.cls-1{fill:#39b54a;}.cls-2{fill:#009245;}</style></defs><title>order_hlt</title><g id="图层_2" data-name="图层 2"><g id="图层_1-2" data-name="图层 1"><path class="cls-1" d="M7.89,44.38h4.22V40.29H5.33A1.9,1.9,0,0,1,3.5,38.86V40a4.4,4.4,0,0,0,4.39,4.39Z"/><path class="cls-1" d="M49.11,44.38a2,2,0,0,0,2-2V36.57A4,4,0,0,1,47.38,39H19.32a4,4,0,0,1-3.71-2.43v7.81Z"/><path class="cls-2" d="M49.11,0H32.4a1.75,1.75,0,0,0,0,3.5H49.11a2,2,0,0,1,2,2V42.4a2,2,0,0,1-2,2H15.61V5.47a2,2,0,0,1,2-2h4.49a1.75,1.75,0,0,0,0-3.5H17.58a5.48,5.48,0,0,0-5.47,5.47V44.38H7.89A4.4,4.4,0,0,1,3.5,40V25.91a4.39,4.39,0,0,1,4.39-4.38h.72a1.75,1.75,0,0,0,0-3.5H7.89A7.9,7.9,0,0,0,0,25.92V40a7.9,7.9,0,0,0,7.89,7.89H49.11a5.48,5.48,0,0,0,5.48-5.47V5.47A5.48,5.48,0,0,0,49.11,0Z"/><path class="cls-2" d="M23.21,13.93A1.76,1.76,0,0,0,25,15.67L44,15.56a1.74,1.74,0,0,0,1.74-1.76A1.76,1.76,0,0,0,44,12.06l-19,.11a1.75,1.75,0,0,0-1.75,1.76ZM45.83,24a1.75,1.75,0,0,0-1.76-1.74l-19,.11a1.75,1.75,0,1,0,0,3.49l19.05-.1A1.75,1.75,0,0,0,45.83,24ZM25.06,31.09a1.75,1.75,0,0,0,0,3.5l12.65-.07a1.75,1.75,0,1,0,0-3.5Z"/></g></g></svg>